<svg width="40" height="44" viewBox="0 0 40 44" fill="none" xmlns="http://www.w3.org/2000/svg">
<rect width="40" height="44" rx="7" fill="white"/>
<rect x="5.75" y="7.75" width="28.5" height="28.5" rx="5.25" stroke="#030303" stroke-width="1.5"/>
<path d="M20.072 16.048L14.24 30.544C14.176 30.704 14.088 30.824 13.976 30.904C13.864 30.984 13.736 31.024 13.592 31.024C13.368 31.024 13.2 30.968 13.088 30.856C12.976 30.728 12.912 30.576 12.896 30.4C12.88 30.32 12.888 30.224 12.92 30.112L19.256 14.608C19.336 14.432 19.432 14.312 19.544 14.248C19.672 14.168 19.816 14.128 19.976 14.128C20.136 14.128 20.272 14.176 20.384 14.272C20.512 14.352 20.608 14.464 20.672 14.608L26.984 30.04C27.016 30.136 27.032 30.232 27.032 30.328C27.032 30.552 26.96 30.728 26.816 30.856C26.672 30.968 26.504 31.024 26.312 31.024C26.152 31.024 26.008 30.984 25.88 30.904C25.768 30.808 25.68 30.688 25.616 30.544L19.64 15.952L20.072 16.048ZM15.632 26.152L16.232 24.736H23.672L23.96 26.152H15.632Z" fill="#030303"/>
</svg>
